<?xml version="1.0" encoding="UTF-8"?>
<svg id="Layer_2" data-name="Layer 2" xmlns="http://www.w3.org/2000/svg" viewBox="0 0 1351.81 1351.81">
  <defs>
    <style>
      .cls-1 {
        fill: #ffda00;
      }

      .cls-2 {
        fill: #8b3ec1;
      }
    </style>
  </defs>
  <g id="Layer_1-2" data-name="Layer 1">
    <rect class="cls-2" x="0" y="0" width="1351.81" height="1351.81" rx="675.9" ry="675.9"/>
    <path class="cls-1" d="M339.65,887.52h168.47c0,76.7,76.7,132.86,164.36,132.86,101.35,0,162.99-57.53,162.99-127.38,0-91.77-53.41-113.68-180.8-152.03-117.79-35.61-287.63-80.81-287.63-284.89,0-158.88,143.82-286.26,324.61-286.26s320.5,127.38,320.5,287.63h-169.84c0-76.7-64.37-128.75-152.03-128.75-94.51,0-153.4,50.68-153.4,115.05s38.35,97.25,162.99,135.59c124.64,36.98,305.43,80.81,305.43,305.43,0,169.84-149.29,297.22-334.19,297.22s-331.46-132.86-331.46-294.48Z"/>
  </g>
</svg>