<?xml version="1.0" encoding="UTF-8"?>
<svg id="Layer_2" data-name="Layer 2" xmlns="http://www.w3.org/2000/svg" viewBox="0 0 1165.88 283.58">
  <defs>
    <style>
      .cls-1 {
        fill: #ffda00;
      }
    </style>
  </defs>
  <g id="Layer_1-2" data-name="Layer 1">
    <g>
      <path class="cls-1" d="M0,187.95h37.59c.3,10.83,11.13,18.65,24.96,18.65,14.74,0,24.06-7.22,24.06-18.04,0-13.83-14.74-16.84-29.77-20.75-31.27-7.82-53.53-20.75-53.53-51.12,0-28.57,25.86-50.82,59.84-50.82s59.84,22.55,59.84,52.02l-37.59-.3c0-11.13-10.53-17.44-22.25-17.44s-22.25,6.01-22.25,16.24c0,12.33,14.43,15.34,29.47,19.25,22.25,5.71,52.93,13.23,52.93,52.33,0,29.47-27.67,53.23-61.35,53.23-35.48,0-61.95-24.06-61.95-53.23Z"/>
      <path class="cls-1" d="M132.01,153.67c0-49.02,39.7-87.51,88.41-87.51s88.41,38.49,88.41,87.51-39.7,87.51-88.41,87.51-88.41-39.69-88.41-87.51ZM271.55,153.67c0-32.18-22.85-52.02-51.12-52.02s-50.52,19.85-50.52,52.02,22.55,52.02,50.52,52.02,51.12-21.05,51.12-52.02Z"/>
      <path class="cls-1" d="M318.46,152.77c0-48.72,39.7-88.11,88.71-88.11,25.26,0,48.42,10.83,64.35,27.67l-24.36,24.96c-9.32-10.53-23.16-17.14-40-17.14-28.27,0-50.82,22.85-50.82,52.63s22.55,52.93,50.82,52.93c15.94,0,28.57-5.71,37.89-15.04l24.36,24.66c-15.94,16.24-37.89,25.86-62.25,25.86-49.02,0-88.71-39.39-88.71-88.41Z"/>
      <path class="cls-1" d="M480.24,21.65c0-12.03,9.92-21.65,21.95-21.65s21.65,9.62,21.65,21.65-9.62,21.95-21.65,21.95-21.95-9.92-21.95-21.95ZM483.25,70.37h37.89v166h-37.89V70.37Z"/>
      <path class="cls-1" d="M694.05,70.37v213.21h-126.9v-35.49h90.22v-27.37h-104.95V70.37h37.29v114.88h67.06v-114.88h37.29Z"/>
      <path class="cls-1" d="M712.69,153.37c0-48.72,34.88-87.81,82.1-87.81,29.47,0,52.33,15.94,62.85,37.89h1.2v-33.08h36.69v166.3h-36.69v-32.48h-1.2c-14.43,26.16-36.09,36.99-62.85,36.99-47.21,0-82.1-39.09-82.1-87.81ZM853.43,153.37c0-30.07-20.75-52.33-50.82-52.33s-50.22,22.25-50.22,52.33,20.45,52.33,50.22,52.33,50.82-22.55,50.82-52.33Z"/>
      <path class="cls-1" d="M914.18,153.37c0-48.72,34.88-87.81,82.1-87.81,29.47,0,52.33,15.94,62.85,37.89h1.2v-33.08h36.69v166.3h-36.69v-32.48h-1.2c-14.43,26.16-36.09,36.99-62.85,36.99-47.21,0-82.1-39.09-82.1-87.81ZM1054.92,153.37c0-30.07-20.75-52.33-50.82-52.33s-50.22,22.25-50.22,52.33,20.45,52.33,50.22,52.33,50.82-22.55,50.82-52.33Z"/>
      <path class="cls-1" d="M1128.59,23.46h37.29v213.21h-37.29V23.46Z"/>
    </g>
  </g>
</svg>